HIERARCHY
ROOT Hips
{
	OFFSET 0.000000 0.000000 0.000000
	CHANNELS 6 Xposition Yposition Zposition Zrotation Yrotation Xrotation 
	JOINT LowerBack
	{
		OFFSET 0.000000 0.000000 0.000000
		CHANNELS 3 Zrotation Yrotation Xrotation
		JOINT Spine
		{
			OFFSET 0.028270 2.035590 -0.193380
			CHANNELS 3 Zrotation Yrotation Xrotation
			JOINT Spine1
			{
				OFFSET 0.056720 2.048850 -0.042750
				CHANNELS 3 Zrotation Yrotation Xrotation
				JOINT Neck
				{
					OFFSET 0.000000 0.000000 0.000000
					CHANNELS 3 Zrotation Yrotation Xrotation
					JOINT Neck1
					{
						OFFSET -0.054170 1.746240 0.172020
						CHANNELS 3 Zrotation Yrotation Xrotation
						JOINT Head
						{
							OFFSET 0.104070 1.761360 -0.123970
							CHANNELS 3 Zrotation Yrotation Xrotation
							End Site
							{
								OFFSET 0.000000 0.000000 0.000000
							}
						}
					}
				}
				JOINT LeftShoulder
				{
					OFFSET 0.000000 0.000000 0.000000
					CHANNELS 3 Zrotation Yrotation Xrotation
					JOINT LeftArm
					{
						OFFSET 3.362410 1.200890 -0.311210
						CHANNELS 3 Zrotation Yrotation Xrotation
						JOINT LeftForeArm
						{
							OFFSET 4.983000 -0.000000 -0.000000
							CHANNELS 3 Zrotation Yrotation Xrotation
							JOINT LeftHand
							{
								OFFSET 3.483560 -0.000000 -0.000000
								CHANNELS 3 Zrotation Yrotation Xrotation
								JOINT LeftFingerBase
								{
									OFFSET 0.000000 0.000000 0.000000
									CHANNELS 3 Zrotation Yrotation Xrotation
									JOINT LeftHandIndex1
									{
										OFFSET 0.715260 -0.000000 -0.000000
										CHANNELS 3 Zrotation Yrotation Xrotation
										End Site
										{
											OFFSET 0.000000 0.000000 0.000000
										}
									}
								}
								JOINT LThumb
								{
									OFFSET 0.000000 0.000000 0.000000
									CHANNELS 3 Zrotation Yrotation Xrotation
									End Site
									{
										OFFSET 0.000000 0.000000 0.000000
									}
								}
							}
						}
					}
				}
				JOINT RightShoulder
				{
					OFFSET 0.000000 0.000000 0.000000
					CHANNELS 3 Zrotation Yrotation Xrotation
					JOINT RightArm
					{
						OFFSET -3.136600 1.374050 -0.404650
						CHANNELS 3 Zrotation Yrotation Xrotation
						JOINT RightForeArm
						{
							OFFSET -5.241900 -0.000000 -0.000000
							CHANNELS 3 Zrotation Yrotation Xrotation
							JOINT RightHand
							{
								OFFSET -3.444170 -0.000000 -0.000000
								CHANNELS 3 Zrotation Yrotation Xrotation
								JOINT RightFingerBase
								{
									OFFSET 0.000000 0.000000 0.000000
									CHANNELS 3 Zrotation Yrotation Xrotation
									JOINT RightHandIndex1
									{
										OFFSET -0.622530 -0.000000 -0.000000
										CHANNELS 3 Zrotation Yrotation Xrotation
										End Site
										{
											OFFSET 0.000000 0.000000 0.000000
										}
									}
								}
								JOINT RThumb
								{
									OFFSET 0.000000 0.000000 0.000000
									CHANNELS 3 Zrotation Yrotation Xrotation
									End Site
									{
										OFFSET 0.000000 0.000000 0.000000
									}
								}
							}
						}
					}
				}
			}
		}
	}
}
}
MOTION
Frames: 13
Frame Time: 0.008333
3.589615 17.329211 1.072642 -176.484725 -76.105486 -172.415274 1.299371 -4.753036 -4.907636 -0.109001 -5.041588 -4.031417 -7.636409 -5.024219 -2.810271 10.994029 -6.689070 -0.420956 -2.310866 -0.263570 2.054906 0.000000 0.000000 0.000000 22.383592 0.999480 -2.914918 -17.002265 -73.134352 -43.790046 4.871596 -12.179653 -0.116167 12.047412 -1.974101 -0.274225 -0.178226 0.577955 -0.000000 0.000000 0.000000 0.000000 0.000000 0.000000 0.000000 1.349367 -4.509241 -4.713017 94.705540 22.114698 43.132751 -178.346052 54.411794 179.890412 -6.248367 13.637652 -0.807441 0.000530 -1.029757 -0.000000 0.000000 0.000000 0.000000 0.000000 0.000000 0.000000 
3.584406 17.334082 1.064280 -177.438854 -76.060883 -171.299894 1.150173 -4.644578 -4.668428 -0.088105 -4.895822 -4.108630 -7.446459 -4.938404 -3.060734 10.946878 -6.882653 -0.740247 -2.282766 -0.258213 1.968847 0.000000 0.000000 0.000000 21.697276 3.565403 -3.815480 -29.936983 -74.787352 -30.104663 5.860938 -16.595853 -0.126699 11.377657 -2.072755 -0.274819 -0.098366 0.654823 -0.000000 0.000000 0.000000 0.000000 0.000000 0.000000 0.000000 0.962230 -5.049444 -4.665365 94.654822 21.399907 42.855051 -178.246497 53.833222 179.889864 -6.120471 13.649025 -0.790123 -0.010750 -1.027324 -0.000000 0.000000 0.000000 0.000000 0.000000 0.000000 0.000000 
3.578638 17.336024 1.054982 -178.349800 -75.990187 -170.345531 1.087125 -4.302711 -4.570661 -0.156640 -4.537863 -4.094190 -7.555969 -4.589744 -2.873080 10.957190 -7.099455 -1.084942 -2.257942 -0.252403 1.867312 0.000000 0.000000 0.000000 20.320048 6.139624 -3.865706 -41.470327 -76.095362 -17.568273 5.949574 -23.299066 -0.136496 10.508059 -2.170510 -0.269340 -0.015228 0.754071 -0.000000 0.000000 0.000000 0.000000 0.000000 0.000000 0.000000 0.780442 -5.660717 -4.635135 94.443059 20.707060 42.305550 -178.042926 53.175542 179.886852 -6.133668 13.651527 -0.790340 -0.023315 -1.025151 -0.000000 0.000000 0.000000 0.000000 0.000000 0.000000 0.000000 
3.571739 17.334699 1.045147 -179.186645 -75.817732 -169.653998 1.224682 -3.851030 -4.729718 -0.287103 -4.113244 -4.000487 -7.991908 -4.114522 -2.337919 10.856099 -7.292841 -1.153288 -2.303116 -0.254312 1.839397 0.000000 0.000000 0.000000 18.601679 7.594462 -3.508694 -47.658478 -75.303128 -9.908184 4.786455 -32.827221 -0.132579 9.142826 -2.553925 -0.268275 0.055426 0.833825 -0.000000 0.000000 0.000000 0.000000 0.000000 0.000000 0.000000 0.745818 -5.884617 -4.518428 94.160615 20.080970 41.562195 -177.808388 52.677146 179.881658 -6.275534 13.634902 -0.806873 -0.032806 -1.032939 -0.000000 0.000000 0.000000 0.000000 0.000000 0.000000 0.000000 
3.563392 17.330090 1.035445 -179.831350 -75.541307 -169.221509 1.480505 -3.358360 -4.972573 -0.425697 -3.668970 -3.916795 -8.532126 -3.603174 -1.852023 10.698086 -7.465785 -0.972146 -2.405711 -0.263195 1.882403 0.000000 0.000000 0.000000 16.853375 7.932384 -3.227201 -50.088291 -72.543596 -5.888026 3.216152 -44.415329 -0.111842 7.115282 -3.336516 -0.256181 0.117207 0.881867 -0.000000 0.000000 0.000000 0.000000 0.000000 0.000000 0.000000 0.787182 -5.853904 -4.285533 93.765065 19.431644 40.721434 -177.607055 52.287199 179.875617 -6.519390 13.599806 -0.836601 -0.035685 -1.047985 -0.000000 0.000000 0.000000 0.000000 0.000000 0.000000 0.000000 
3.553631 17.322331 1.026768 179.783765 -75.217390 -169.035953 1.777472 -2.842302 -5.191030 -0.549684 -3.204639 -3.855470 -9.047348 -3.072377 -1.483026 10.558513 -7.638706 -0.713258 -2.535387 -0.274820 1.947389 0.000000 0.000000 0.000000 15.116739 7.606842 -2.976949 -51.173871 -68.897231 -3.342355 1.790784 -56.694498 -0.079629 4.600623 -4.370231 -0.202067 0.163607 0.907995 -0.000000 0.000000 0.000000 0.000000 0.000000 0.000000 0.000000 0.892158 -5.777161 -3.992552 93.241618 18.765775 39.853820 -177.462345 51.928644 179.869846 -6.827812 13.550448 -0.874656 -0.031585 -1.065094 -0.000000 0.000000 0.000000 0.000000 0.000000 0.000000 0.000000 
3.542562 17.311885 1.020088 179.671482 -74.890440 -169.088790 2.097034 -2.332447 -5.358495 -0.643110 -2.743840 -3.801630 -9.477397 -2.547804 -1.169761 10.438454 -7.827552 -0.492509 -2.680752 -0.286817 2.001036 0.000000 0.000000 0.000000 13.461197 7.065044 -2.715429 -52.224963 -65.044572 -0.999584 0.759479 -68.605449 -0.043510 1.999577 -5.390369 -0.096746 0.189702 0.926008 -0.000000 0.000000 0.000000 0.000000 0.000000 0.000000 0.000000 1.035547 -5.728791 -3.693370 92.635053 18.152215 39.039097 -177.392483 51.606795 179.865160 -7.153987 13.488187 -0.914859 -0.021091 -1.082215 -0.000000 0.000000 0.000000 0.000000 0.000000 0.000000 0.000000 
3.530519 17.299452 1.016080 179.810241 -74.595207 -169.359902 2.444742 -1.859234 -5.475749 -0.696296 -2.316523 -3.744436 -9.796720 -2.059139 -0.861351 10.304866 -8.037846 -0.362164 -2.839003 -0.298337 2.028895 0.000000 0.000000 0.000000 12.020762 6.623558 -2.476420 -53.843889 -61.197339 1.603405 0.230392 -79.598785 -0.008503 -0.347868 -6.182958 0.037622 0.198518 0.945668 -0.000000 0.000000 0.000000 0.000000 0.000000 0.000000 0.000000 1.177642 -5.724856 -3.418833 92.013338 17.650658 38.346775 -177.406409 51.362755 179.862078 -7.447321 13.414771 -0.950233 -0.005936 -1.098783 -0.000000 0.000000 0.000000 0.000000 0.000000 0.000000 0.000000 
3.517586 17.285908 1.015033 -179.833369 -74.360516 -169.814017 2.823565 -1.446591 -5.546517 -0.704680 -1.946626 -3.681487 -9.989182 -1.631840 -0.541680 10.121736 -8.271280 -0.342610 -3.008355 -0.309155 2.026002 0.000000 0.000000 0.000000 10.930039 6.457573 -2.324295 -56.323556 -57.285368 4.511586 0.224036 -89.467967 0.023336 -2.287804 -6.670077 0.169884 0.196250 0.970905 -0.000000 0.000000 0.000000 0.000000 0.000000 0.000000 0.000000 1.274157 -5.774917 -3.183081 91.444389 17.290575 37.826212 -177.503172 51.235820 179.860918 -7.661683 13.331954 -0.974899 0.011446 -1.114404 -0.000000 0.000000 0.000000 0.000000 0.000000 0.000000 0.000000 
3.503782 17.272272 1.016784 -179.293789 -74.210357 -170.408082 3.215782 -1.110505 -5.568406 -0.667267 -1.647514 -3.617958 -10.029492 -1.284192 -0.228964 9.865909 -8.526931 -0.441281 -3.185154 -0.319197 1.991208 0.000000 0.000000 0.000000 10.305735 6.616674 -2.325570 -59.793347 -53.072852 7.566573 -179.308021 -81.822561 -179.948764 -3.807060 -6.889891 0.280057 0.189291 1.001543 -0.000000 0.000000 0.000000 0.000000 0.000000 0.000000 0.000000 1.281195 -5.894961 -2.991113 90.977363 17.066691 37.496952 -177.672066 51.241534 179.861847 -7.761632 13.241079 -0.983982 0.028422 -1.128378 -0.000000 0.000000 0.000000 0.000000 0.000000 0.000000 0.000000 
3.489225 17.259495 1.020753 -178.611170 -74.162361 -171.089754 3.576956 -0.860167 -5.532295 -0.587088 -1.422372 -3.560292 -9.881067 -1.026258 0.047255 9.538875 -8.808609 -0.672037 -3.361550 -0.328094 1.921425 0.000000 0.000000 0.000000 10.206105 7.085221 -2.514322 -64.194842 -48.316638 10.509240 -178.494711 -74.255804 -179.925490 -4.954444 -6.932597 0.362636 0.184736 1.035491 -0.000000 0.000000 0.000000 0.000000 0.000000 0.000000 0.000000 1.168469 -6.111535 -2.847647 90.631771 16.951863 37.351256 -177.895881 51.367200 179.864917 -7.729809 13.143170 -0.975301 0.042855 -1.139530 -0.000000 0.000000 0.000000 0.000000 0.000000 0.000000 0.000000 
3.474143 17.248424 1.026137 -177.824256 -74.226786 -171.811636 3.847695 -0.698855 -5.431193 -0.472584 -1.267550 -3.510954 -9.512917 -0.859780 0.269755 9.170169 -9.119502 -1.054902 -3.524736 -0.335062 1.811478 0.000000 0.000000 0.000000 10.613076 7.795293 -2.851055 -69.241871 -42.889226 13.045269 -177.558929 -67.780151 -179.907780 -5.795061 -6.896326 0.421706 0.191371 1.070108 -0.000000 0.000000 0.000000 0.000000 0.000000 0.000000 0.000000 0.928114 -6.438433 -2.761895 90.397786 16.906932 37.350891 -178.150910 51.573291 179.869969 -7.569049 13.039261 -0.949370 0.053285 -1.146485 -0.000000 0.000000 0.000000 0.000000 0.000000 0.000000 0.000000 
3.458805 17.239655 1.031911 -176.982693 -74.400813 -172.526897 3.984339 -0.628239 -5.271176 -0.337725 -1.182145 -3.464018 -8.936325 -0.783673 0.460008 8.806638 -9.460538 -1.608786 -3.660173 -0.339057 1.656129 0.000000 0.000000 0.000000 11.388069 8.658955 -3.205617 -74.428702 -36.931885 14.971645 -176.774172 -62.315929 -179.896553 -6.391058 -6.867355 0.465254 0.217564 1.102741 -0.000000 0.000000 0.000000 0.000000 0.000000 0.000000 0.000000 0.587297 -6.846645 -2.749405 90.256950 16.906703 37.443004 -178.415327 51.818872 179.876634 -7.302043 12.929754 -0.909295 0.059470 -1.148442 -0.000000 0.000000 0.000000 0.000000 0.000000 0.000000 0.000000 
